<?xml version="1.0" encoding="UTF-8"?>
<svg width="747px" height="180px" viewBox="0 0 747 180" version="1.1" xmlns="http://www.w3.org/2000/svg" xmlns:xlink="http://www.w3.org/1999/xlink">
    <title>白底</title>
    <defs>
        <linearGradient x1="59.2821247%" y1="-7.18795206%" x2="36.7361177%" y2="131.722996%" id="linearGradient-1">
            <stop stop-color="#2185FF" offset="0%"></stop>
            <stop stop-color="#0048F2" offset="100%"></stop>
        </linearGradient>
        <linearGradient x1="66.9190305%" y1="-54.2353948%" x2="44.3730235%" y2="84.6673425%" id="linearGradient-2">
            <stop stop-color="#2185FF" offset="0%"></stop>
            <stop stop-color="#0048F2" offset="100%"></stop>
        </linearGradient>
        <linearGradient x1="60.2126388%" y1="-2.86257792%" x2="28.3798613%" y2="161.913674%" id="linearGradient-3">
            <stop stop-color="#2185FF" offset="0%"></stop>
            <stop stop-color="#0048F2" offset="100%"></stop>
        </linearGradient>
        <linearGradient x1="76.1277168%" y1="-85.2441896%" x2="44.2949393%" y2="79.5320618%" id="linearGradient-4">
            <stop stop-color="#2185FF" offset="0%"></stop>
            <stop stop-color="#0048F2" offset="100%"></stop>
        </linearGradient>
    </defs>
    <g id="页面-1" stroke="none" stroke-width="1" fill="none" fill-rule="evenodd">
        <g id="白底">
            <g id="编组-3">
                <path d="M117.662676,41.7943784 C111.649233,45.6631495 108,52.3917066 108,59.621771 L108,59.621771 L108,131 L126.337324,119.208607 C132.350767,115.336851 136,108.611279 136,101.378229 L136,101.378229 L136,30 L117.662676,41.7943784 Z" id="Fill-1" fill="url(#linearGradient-1)"></path>
                <path d="M9.66561647,58.7936813 C3.6462928,62.6622237 0,69.396353 0,76.6259901 L0,76.6259901 L0,148 L18.3343835,136.209304 C24.3537072,132.337776 28,125.606632 28,118.37401 L28,118.37401 L28,47 L9.66561647,58.7936813 Z" id="Fill-3" fill="url(#linearGradient-2)"></path>
                <path d="M82,0 L63.6626759,11.7741822 C57.6462928,15.6393086 54,22.356344 54,29.577008 L54,29.577008 L54,85 L72.3343835,73.2258178 C78.3537072,69.3606914 82,62.646636 82,55.425972 L82,55.425972 L82,0 Z" id="Fill-5" fill="url(#linearGradient-3)"></path>
                <path d="M63.6626759,106.774182 C57.6462928,110.639309 54,117.356344 54,124.577008 L54,124.577008 L54,180 L72.3343835,168.225818 C78.3537072,164.360691 82,157.646636 82,150.425972 L82,150.425972 L82,95 L63.6626759,106.774182 Z" id="Fill-7" fill="url(#linearGradient-4)"></path>
            </g>
            <g id="编组" transform="translate(194.793281, 50.522107)" fill="#000000">
                <polygon id="Fill-9" points="65.2560507 76.9606605 46.955582 76.9606605 46.955582 44.2616004 18.1900271 53.3032277 18.1900271 76.9606605 0 76.9606605 0 1.1542249 18.1900271 1.1542249 18.1900271 34.536629 46.955582 25.3905605 46.955582 1.1542249 65.2560507 1.1542249"></polygon>
                <polygon id="Fill-11" points="157.412089 77.4852539 138.374348 77.4852539 116.396473 23.4443726 100.567508 62.3472423 117.235232 62.3472423 117.235232 77.4852539 75.7987445 77.4852539 108.190962 1.15362809 124.912415 1.15362809"></polygon>
                <path d="M196.140072,77.0656985 C190.355321,77.0656985 184.657132,76.0690307 179.048491,74.069727 C173.475668,72.0346148 168.374461,68.9521062 163.744869,64.8192172 L174.105484,52.4086139 C178.066456,55.6343562 181.767741,58.0365047 185.200385,59.6120754 C188.636014,61.1906301 192.405952,61.9784155 196.507215,61.9784155 C199.626444,61.9784155 202.029294,61.4174168 203.709797,60.2984035 C205.429104,59.1376138 206.288758,57.4784901 206.288758,55.3031283 L206.288758,55.0912617 C206.288758,53.93644 206.112648,52.9725966 205.763414,52.1997314 C205.342542,51.4298503 204.658998,50.7106978 203.709797,50.0452579 C202.662095,49.4126424 201.18755,48.7680907 199.295119,48.0996668 C197.683269,47.4700353 195.561,46.8195156 192.931296,46.1570597 C192.582062,46.0496345 192.229843,45.9451932 191.880608,45.8377679 C188.095746,44.9634456 184.639223,43.9309693 181.522979,42.7373551 C178.364947,41.6153578 175.699424,40.1800368 173.529396,38.428408 C171.353399,36.7125877 169.669911,34.6237629 168.478933,32.1708858 C167.323773,29.6463918 166.744701,26.5638832 166.744701,22.917392 L166.744701,22.7085095 C166.744701,19.378326 167.356607,16.3286418 168.586389,13.5624409 C169.881839,10.7574477 171.720542,8.35828318 174.105484,6.35897946 C176.490425,4.32685135 179.346981,2.73337644 182.678138,1.5755707 C185.973476,0.525190232 189.603124,0 193.564096,0 C199.172738,0 204.306779,0.820609738 208.969205,2.47078132 C213.703268,4.15079326 218.049294,6.58875019 222.010266,9.7757 L212.968981,22.8129507 C209.037858,20.1840155 205.551485,18.2414085 202.503895,16.9791615 C199.4175,15.6840901 196.366925,15.0335704 193.352168,15.0335704 C190.441883,15.0335704 188.283795,15.6094892 186.883873,16.770279 C185.376495,17.8892923 184.624298,19.3604217 184.624298,21.1836674 L184.624298,21.3955339 C184.624298,22.6906053 184.883985,23.7439698 185.412314,24.5466753 C185.833186,25.3911573 186.588367,26.1461183 187.674874,26.8085741 C188.758395,27.4382056 190.337411,28.0887253 192.405952,28.7571493 C193.77304,29.1749142 195.38489,29.6314716 197.244488,30.1208534 C198.154884,30.3685284 199.11901,30.6281395 200.136863,30.9086388 C203.993364,31.9261949 207.408098,33.0660964 210.390021,34.3253593 C213.404777,35.6234147 215.944934,37.1303526 218.013475,38.846173 C220.153654,40.6694186 221.729685,42.7552594 222.747538,45.1036952 C223.765392,47.4521311 224.272826,50.2571244 224.272826,53.512707 L224.272826,53.7245735 C224.272826,57.3680808 223.589282,60.6296315 222.222195,63.5032576 C220.92376,66.3768837 219.031328,68.8118566 216.541915,70.8111603 C214.016684,72.8432884 211.037746,74.3860347 207.602117,75.4364152 C204.059032,76.5226041 200.241335,77.0656985 196.140072,77.0656985" id="Fill-13"></path>
                <polygon id="Fill-15" points="300.075451 76.9606605 281.774982 76.9606605 281.774982 44.2616004 253.009427 53.3032277 253.009427 76.9606605 234.816415 76.9606605 234.816415 1.1542249 253.009427 1.1542249 253.009427 34.536629 281.774982 25.3905605 281.774982 1.1542249 300.075451 1.1542249"></polygon>
                <polygon id="Fill-17" points="359.881657 77.0656985 338.32167 77.0656985 313.660363 48.8904362 305.069798 39.1087681 338.32167 1.04739643 359.881657 1.04739643 326.385024 39.0580395"></polygon>
                <polygon id="Fill-19" points="371.634731 77.0662953 389.9352 77.0662953 389.9352 1.04799324 371.634731 1.04799324"></polygon>
                <polygon id="Fill-21" points="471.730922 77.1704382 456.113886 77.1704382 420.984508 31.1178197 420.984508 77.1704382 402.895967 77.1704382 402.895967 1.04769483 419.563692 1.04769483 453.534925 45.6291839 453.534925 1.04769483 471.730922 1.04769483"></polygon>
                <path d="M519.127972,78.9569802 C507.068945,78.9569802 497.341131,75.2269359 489.94453,67.7608793 C482.479276,60.3694236 478.745157,51.0771373 478.745157,39.8989407 C478.745157,29.2459343 482.404654,20.1326901 489.732602,12.5621923 C497.096369,5.02750286 506.683892,1.03187944 518.498157,0.575322027 L542.446071,0.575322027 L542.446071,16.3996618 L518.498157,16.3996618 C512.88653,16.3996618 508.033071,18.6615607 503.931807,23.1823743 C499.830544,27.7031879 497.779913,33.2057492 497.779913,39.6900582 C497.779913,46.5593077 499.866363,52.2170388 504.036279,56.6662356 C508.20918,61.0497837 513.414859,63.2400656 519.656301,63.2400656 C525.473886,63.2400656 530.398983,61.840553 534.431594,59.0325757 L534.431594,48.7316855 L517.707156,48.7316855 L517.707156,33.7488437 L552.206719,33.7488437 L552.206719,66.7104988 C544.24597,74.8778037 533.222706,78.9569802 519.127972,78.9569802" id="Fill-22"></path>
            </g>
        </g>
    </g>
</svg>